HIERARCHY
ROOT Hips
{
  OFFSET -274.024 67.2248 878.513
  CHANNELS 6 Xposition Yposition Zposition Zrotation Xrotation Yrotation
  JOINT Spine
  {
    OFFSET 0 8 0
    CHANNELS 6 Xposition Yposition Zposition Zrotation Xrotation Yrotation
    JOINT Spine1
    {
      OFFSET 0 8 0
      CHANNELS 6 Xposition Yposition Zposition Zrotation Xrotation Yrotation
      JOINT Spine2
      {
        OFFSET 0 8 0
        CHANNELS 6 Xposition Yposition Zposition Zrotation Xrotation Yrotation
        JOINT Spine3
        {
          OFFSET 0 8 0
          CHANNELS 6 Xposition Yposition Zposition Zrotation Xrotation Yrotation
          JOINT Neck
          {
            OFFSET 0 17 0
            CHANNELS 6 Xposition Yposition Zposition Zrotation Xrotation Yrotation
            JOINT Head
            {
              OFFSET 0 10.8 0
              CHANNELS 6 Xposition Yposition Zposition Zrotation Xrotation Yrotation
              End Site
              {
                OFFSET 0 20.25 0
              }
            }
          }
          JOINT LeftShoulder
          {
            OFFSET 5 17 0
            CHANNELS 6 Xposition Yposition Zposition Zrotation Xrotation Yrotation
            JOINT LeftShoulder2
            {
              OFFSET 6.45 0 0
              CHANNELS 6 Xposition Yposition Zposition Zrotation Xrotation Yrotation
              JOINT LeftArm
              {
                OFFSET 6.45 0 0
                CHANNELS 6 Xposition Yposition Zposition Zrotation Xrotation Yrotation
                JOINT LeftForeArm
                {
                  OFFSET 0 -32.4 -2
                  CHANNELS 6 Xposition Yposition Zposition Zrotation Xrotation Yrotation
                  JOINT LeftHand
                  {
                    OFFSET 0 -25.65 2
                    CHANNELS 6 Xposition Yposition Zposition Zrotation Xrotation Yrotation
                    JOINT LeftHandThumb1
                    {
                      OFFSET -0.5 -1.5 2.65
                      CHANNELS 6 Xposition Yposition Zposition Zrotation Xrotation Yrotation
                      JOINT LeftHandThumb2
                      {
                        OFFSET 0 -3.8 3.7
                        CHANNELS 6 Xposition Yposition Zposition Zrotation Xrotation Yrotation
                        JOINT LeftHandThumb3
                        {
                          OFFSET 0 -3 2.7
                          CHANNELS 6 Xposition Yposition Zposition Zrotation Xrotation Yrotation
                          End Site
                          {
                            OFFSET 0 -2.3 1.8
                          }
                        }
                      }
                    }
                    JOINT LeftHandIndex
                    {
                      OFFSET 0 -1.9 1.6
                      CHANNELS 6 Xposition Yposition Zposition Zrotation Xrotation Yrotation
                      JOINT LeftHandIndex1
                      {
                        OFFSET 0 -8.3 1.9
                        CHANNELS 6 Xposition Yposition Zposition Zrotation Xrotation Yrotation
                        JOINT LeftHandIndex2
                        {
                          OFFSET 0 -4.5 0
                          CHANNELS 6 Xposition Yposition Zposition Zrotation Xrotation Yrotation
                          JOINT LeftHandIndex3
                          {
                            OFFSET 0 -3.4 0
                            CHANNELS 6 Xposition Yposition Zposition Zrotation Xrotation Yrotation
                            End Site
                            {
                              OFFSET 0 -2.6 0
                            }
                          }
                        }
                      }
                    }
                    JOINT LeftHandMiddle
                    {
                      OFFSET -0.25 -2.2 0.4
                      CHANNELS 6 Xposition Yposition Zposition Zrotation Xrotation Yrotation
                      JOINT LeftHandMiddle1
                      {
                        OFFSET 0 -8.3 1
                        CHANNELS 6 Xposition Yposition Zposition Zrotation Xrotation Yrotation
                        JOINT LeftHandMiddle2
                        {
                          OFFSET 0 -4.65 0
                          CHANNELS 6 Xposition Yposition Zposition Zrotation Xrotation Yrotation
                          JOINT LeftHandMiddle3
                          {
                            OFFSET 0 -3.3 0
                            CHANNELS 6 Xposition Yposition Zposition Zrotation Xrotation Yrotation
                            End Site
                            {
                              OFFSET 0 -2.7 0
                            }
                          }
                        }
                      }
                    }
                    JOINT LeftHandRing
                    {
                      OFFSET -0.5 -2.15 -0.8
                      CHANNELS 6 Xposition Yposition Zposition Zrotation Xrotation Yrotation
                      JOINT LeftHandRing1
                      {
                        OFFSET 0 -7.75 -0.2
                        CHANNELS 6 Xposition Yposition Zposition Zrotation Xrotation Yrotation
                        JOINT LeftHandRing2
                        {
                          OFFSET 0 -3.8 0
                          CHANNELS 6 Xposition Yposition Zposition Zrotation Xrotation Yrotation
                          JOINT LeftHandRing3
                          {
                            OFFSET 0 -3.4 0
                            CHANNELS 6 Xposition Yposition Zposition Zrotation Xrotation Yrotation
                            End Site
                            {
                              OFFSET 0 -2.6 0
                            }
                          }
                        }
                      }
                    }
                    JOINT LeftHandPinky
                    {
                      OFFSET -0.75 -1.75 -1.85
                      CHANNELS 6 Xposition Yposition Zposition Zrotation Xrotation Yrotation
                      JOINT LeftHandPinky1
                      {
                        OFFSET 0 -7.15 -1
                        CHANNELS 6 Xposition Yposition Zposition Zrotation Xrotation Yrotation
                        JOINT LeftHandPinky2
                        {
                          OFFSET 0 -3 0
                          CHANNELS 6 Xposition Yposition Zposition Zrotation Xrotation Yrotation
                          JOINT LeftHandPinky3
                          {
                            OFFSET 0 -2.35 0
                            CHANNELS 6 Xposition Yposition Zposition Zrotation Xrotation Yrotation
                            End Site
                            {
                              OFFSET 0 -2.1 0
                            }
                          }
                        }
                      }
                    }
                  }
                }
              }
            }
          }
          JOINT RightShoulder
          {
            OFFSET -5 17 0
            CHANNELS 6 Xposition Yposition Zposition Zrotation Xrotation Yrotation
            JOINT RightShoulder2
            {
              OFFSET -6.45 0 0
              CHANNELS 6 Xposition Yposition Zposition Zrotation Xrotation Yrotation
              JOINT RightArm
              {
                OFFSET -6.45 0 0
                CHANNELS 6 Xposition Yposition Zposition Zrotation Xrotation Yrotation
                JOINT RightForeArm
                {
                  OFFSET 0 -32.4 -2
                  CHANNELS 6 Xposition Yposition Zposition Zrotation Xrotation Yrotation
                  JOINT RightHand
                  {
                    OFFSET 0 -25.65 2
                    CHANNELS 6 Xposition Yposition Zposition Zrotation Xrotation Yrotation
                    JOINT RightHandThumb1
                    {
                      OFFSET 0.5 -1.5 2.65
                      CHANNELS 6 Xposition Yposition Zposition Zrotation Xrotation Yrotation
                      JOINT RightHandThumb2
                      {
                        OFFSET 0 -3.8 3.7
                        CHANNELS 6 Xposition Yposition Zposition Zrotation Xrotation Yrotation
                        JOINT RightHandThumb3
                        {
                          OFFSET 0 -3 2.7
                          CHANNELS 6 Xposition Yposition Zposition Zrotation Xrotation Yrotation
                          End Site
                          {
                            OFFSET 0 -2.3 1.8
                          }
                        }
                      }
                    }
                    JOINT RightHandIndex
                    {
                      OFFSET 0 -1.9 1.6
                      CHANNELS 6 Xposition Yposition Zposition Zrotation Xrotation Yrotation
                      JOINT RightHandIndex1
                      {
                        OFFSET 0 -8.3 1.9
                        CHANNELS 6 Xposition Yposition Zposition Zrotation Xrotation Yrotation
                        JOINT RightHandIndex2
                        {
                          OFFSET 0 -4.5 0
                          CHANNELS 6 Xposition Yposition Zposition Zrotation Xrotation Yrotation
                          JOINT RightHandIndex3
                          {
                            OFFSET 0 -3.4 0
                            CHANNELS 6 Xposition Yposition Zposition Zrotation Xrotation Yrotation
                            End Site
                            {
                              OFFSET 0 -2.6 0
                            }
                          }
                        }
                      }
                    }
                    JOINT RightHandMiddle
                    {
                      OFFSET 0.25 -2.2 0.4
                      CHANNELS 6 Xposition Yposition Zposition Zrotation Xrotation Yrotation
                      JOINT RightHandMiddle1
                      {
                        OFFSET 0 -8.3 1
                        CHANNELS 6 Xposition Yposition Zposition Zrotation Xrotation Yrotation
                        JOINT RightHandMiddle2
                        {
                          OFFSET 0 -4.65 0
                          CHANNELS 6 Xposition Yposition Zposition Zrotation Xrotation Yrotation
                          JOINT RightHandMiddle3
                          {
                            OFFSET 0 -3.3 0
                            CHANNELS 6 Xposition Yposition Zposition Zrotation Xrotation Yrotation
                            End Site
                            {
                              OFFSET 0 -2.7 0
                            }
                          }
                        }
                      }
                    }
                    JOINT RightHandRing
                    {
                      OFFSET 0.5 -2.15 -0.8
                      CHANNELS 6 Xposition Yposition Zposition Zrotation Xrotation Yrotation
                      JOINT RightHandRing1
                      {
                        OFFSET 0 -7.75 -0.2
                        CHANNELS 6 Xposition Yposition Zposition Zrotation Xrotation Yrotation
                        JOINT RightHandRing2
                        {
                          OFFSET 0 -3.8 0
                          CHANNELS 6 Xposition Yposition Zposition Zrotation Xrotation Yrotation
                          JOINT RightHandRing3
                          {
                            OFFSET 0 -3.4 0
                            CHANNELS 6 Xposition Yposition Zposition Zrotation Xrotation Yrotation
                            End Site
                            {
                              OFFSET 0 -2.6 0
                            }
                          }
                        }
                      }
                    }
                    JOINT RightHandPinky
                    {
                      OFFSET 0.75 -1.75 -1.85
                      CHANNELS 6 Xposition Yposition Zposition Zrotation Xrotation Yrotation
                      JOINT RightHandPinky1
                      {
                        OFFSET 0 -7.15 -1
                        CHANNELS 6 Xposition Yposition Zposition Zrotation Xrotation Yrotation
                        JOINT RightHandPinky2
                        {
                          OFFSET 0 -3 0
                          CHANNELS 6 Xposition Yposition Zposition Zrotation Xrotation Yrotation
                          JOINT RightHandPinky3
                          {
                            OFFSET 0 -2.35 0
                            CHANNELS 6 Xposition Yposition Zposition Zrotation Xrotation Yrotation
                            End Site
                            {
                              OFFSET 0 -2.1 0
                            }
                          }
                        }
                      }
                    }
                  }
                }
              }
            }
          }
        }
      }
    }
  }
  JOINT LeftUpLeg
  {
    OFFSET 8 0 0
    CHANNELS 6 Xposition Yposition Zposition Zrotation Xrotation Yrotation
    JOINT LeftLeg
    {
      OFFSET 0 -45 -1
      CHANNELS 6 Xposition Yposition Zposition Zrotation Xrotation Yrotation
      JOINT LeftFoot
      {
        OFFSET 0 -41 -2
        CHANNELS 6 Xposition Yposition Zposition Zrotation Xrotation Yrotation
        JOINT LeftToeBase
        {
          OFFSET 0 -7.5 12.5
          CHANNELS 6 Xposition Yposition Zposition Zrotation Xrotation Yrotation
          JOINT LeftFootToe
          {
            OFFSET 0 0 4
            CHANNELS 6 Xposition Yposition Zposition Zrotation Xrotation Yrotation
            End Site
            {
              OFFSET 0 0 0
            }
          }
        }
      }
    }
  }
  JOINT RightUpLeg
  {
    OFFSET -8 0 0
    CHANNELS 6 Xposition Yposition Zposition Zrotation Xrotation Yrotation
    JOINT RightLeg
    {
      OFFSET 0 -45 -1
      CHANNELS 6 Xposition Yposition Zposition Zrotation Xrotation Yrotation
      JOINT RightFoot
      {
        OFFSET 0 -41 -2
        CHANNELS 6 Xposition Yposition Zposition Zrotation Xrotation Yrotation
        JOINT RightToeBase
        {
          OFFSET 0 -7.5 12.5
          CHANNELS 6 Xposition Yposition Zposition Zrotation Xrotation Yrotation
          JOINT RightFootToe
          {
            OFFSET 0 0 4
            CHANNELS 6 Xposition Yposition Zposition Zrotation Xrotation Yrotation
            End Site
            {
              OFFSET 0 0 0
            }
          }
        }
      }
    }
  }
}
MOTION
Frames:	3
Frame Time:	0.0111111
-266.195 92.9682 870.931 1.13242 -0.0446469 176.999 0 8 0 0.758599 -2.20869 -3.77689 2.84217e-14 8 0 0.0545833 1.03476 1.81937 -2.84217e-14 8 0 0.031392 0.517574 0.90985 2.84217e-14 8 0 0.0313874 0.517486 0.909695 8.52651e-14 17 0 -3.56303 -9.48273 4.09683 0 10.8 0 -1.32043 -15.9167 9.83726 5 17 0 -11.7591 -8.44066 1.77911 6.45 0 0 -1.56532 -0.39975 0.16123 6.45 0 -1.13687e-13 40.2041 -13.153 18.5524 0 -32.4 -2 -44.4755 -40.8803 -42.0944 -2.84217e-14 -25.65 2 -25.3198 -33.9271 -3.67534 -0.5 -1.5 2.65 19.2288 10.4681 -12.3774 -2.84217e-14 -3.8 3.7 -0.17753 25.1693 0.0190861 -2.84217e-14 -3 2.7 -0.0213859 24.411 0.0183344 0 -1.9 1.6 1.27222e-14 0 -1.59028e-15 0 -8.3 1.9 -6.78611 20.6708 1.48328 0 -4.5 1.77636e-14 -1.09824e-07 -0.00961189 -0.000654653 0 -3.4 -1.06581e-14 6.1327e-08 -0.00396939 0.000885219 -0.25 -2.2 0.4 1.27222e-14 0 -1.59028e-15 2.84217e-14 -8.3 1 -5.39435 8.31916 0.701891 0 -4.65 0 -6.45186e-08 0.000314217 0.0117646 -1.13687e-13 -3.3 0 -1.65542e-08 0.000306208 0.00309752 -0.5 -2.15 -0.8 1.27222e-14 0 -1.59028e-15 5.68434e-14 -7.75 -0.2 -4.75074 -8.08138 0.196509 -1.13687e-13 -3.8 5.68434e-14 -2.63417e-07 0.00472263 0.00319582 -5.68434e-14 -3.4 0 -9.46125e-08 0.00171362 0.00316342 -0.75 -1.75 -1.85 1.27222e-14 0 -1.59028e-15 2.84217e-14 -7.15 -1 -3.89415 -15.705 0.057326 0 -3 -5.68434e-14 4.50872e-05 0.00369638 0.00159739 5.68434e-14 -2.35 -5.68434e-14 4.49493e-05 0.00457395 0.00335553 -5 17 0 -7.90657 -3.425 1.88883 -6.45 2.84217e-14 0 -1.84911 0.756782 -1.39605 -6.45 0 1.13687e-13 -105.025 -47.9197 -28.5979 0 -32.4 -2 -23.04 -51.0159 -32.2898 0 -25.65 2 14.5321 -5.68123 2.73918 0.5 -1.5 2.65 110.619 16.9058 176.199 0 -3.8 3.7 0.106867 11.9542 0.011296 -1.13687e-13 -3 2.7 0.0136688 44.3009 -0.000182207 5.68434e-14 -1.9 1.6 -3.18055e-15 0 3.18055e-15 0 -8.3 1.9 0.557312 -6.33859 0.00071745 0 -4.5 0 -2.19368e-09 -0.000297776 -0.000422092 5.68434e-14 -3.4 0 -2.05029e-09 -0.000292992 -0.000400942 0.25 -2.2 0.4 -3.18055e-15 0 3.18055e-15 0 -8.3 1 0.908715 -0.946814 -0.0773858 0 -4.65 0 3.41717 -0.0413215 -0.00409606 0 -3.3 0 3.20529 -0.0379584 -0.00126622 0.5 -2.15 -0.8 -3.18055e-15 0 3.18055e-15 0 -7.75 -0.2 1.47931 7.03712 -0.287432 0 -3.8 0 -0.000421763 0.000865411 -0.00444143 5.68434e-14 -3.4 0 -0.000419817 0.00108764 -0.00614662 0.75 -1.75 -1.85 -3.18055e-15 0 3.18055e-15 5.68434e-14 -7.15 -1 1.48198 10.4033 -0.357117 0 -3 -5.68434e-14 -2.63262e-08 -0.000181023 -0.00833254 0 -2.35 0 2.03887e-09 -0.000169596 0.000688806 8 -1.42109e-14 0 0.830191 -7.71576 -11.9653 0 -45 -1 -0.15604 13.374 2.27379 -2.84217e-14 -41 -2 -1.38018 -5.69616 -2.61993 2.84217e-14 -7.5 12.5 4.85314e-20 -3.63986e-20 -0 -2.84217e-14 0 4 -1.14637 -0.889471 35.7946 -8 -1.42109e-14 1.13687e-13 -1.23348 -0.345481 7.95848 0 -45 -1 -0.000492047 4.70104 -0.156898 5.68434e-14 -41 -2 2.41447 -4.66141 19.1561 0 -7.5 12.5 -3.60952e-19 -0.00678565 -0 0 0 4 -0.860417 2.07384 8.45382 
-266.238 92.9673 870.924 1.1193 -0.0461957 176.871 0 8 1.13687e-13 0.667669 -2.21599 -3.78881 2.84217e-14 8 0 0.080315 1.03213 1.83126 5.68434e-14 8 -1.13687e-13 0.0442784 0.515995 0.915855 8.52651e-14 8 0 0.0442716 0.515908 0.915698 2.84217e-14 17 -1.13687e-13 -3.70883 -9.48622 4.07273 0 10.8 0 -1.26449 -15.8668 9.79324 5 17 0 -12.1085 -8.48005 1.71064 6.45 -5.68434e-14 -1.13687e-13 -1.59357 -0.409805 0.127253 6.45 5.68434e-14 1.13687e-13 40.4423 -12.9522 18.7159 0 -32.4 -2 -44.5599 -41.0077 -42.319 -2.84217e-14 -25.65 2 -24.9967 -33.9015 -3.55 -0.5 -1.5 2.65 19.0114 10.4516 -12.521 2.84217e-14 -3.8 3.7 -0.177572 25.2829 0.0191061 0 -3 2.7 -0.021411 24.3561 0.0183767 0 -1.9 1.6 9.54166e-15 3.18055e-15 -1.59028e-15 2.84217e-14 -8.3 1.9 -6.74272 20.614 1.46993 1.13687e-13 -4.5 -3.55271e-15 -1.16718e-07 -0.00964397 -0.000693434 0 -3.4 3.55271e-15 6.11384e-08 -0.00397814 0.000880556 -0.25 -2.2 0.4 9.54166e-15 3.18055e-15 -1.59028e-15 -2.84217e-14 -8.3 1 -5.36741 8.30638 0.698141 0 -4.65 2.84217e-14 -6.2579e-08 0.000303961 0.011796 0 -3.3 -2.84217e-14 -1.60071e-08 0.000296044 0.00309799 -0.5 -2.15 -0.8 9.54166e-15 3.18055e-15 -1.59028e-15 0 -7.75 -0.2 -4.73132 -8.07349 0.196385 -1.13687e-13 -3.8 0 -2.66654e-07 0.00473708 0.00322522 -5.68434e-14 -3.4 0 -9.52337e-08 0.00170948 0.0031919 -0.75 -1.75 -1.85 9.54166e-15 3.18055e-15 -1.59028e-15 -5.68434e-14 -7.15 -1 -3.88871 -15.6952 0.0570535 5.68434e-14 -3 0 4.17705e-05 0.00370427 0.00161564 -5.68434e-14 -2.35 0 4.16284e-05 0.00458518 0.00339281 -5 17 -1.13687e-13 -8.08595 -3.40844 1.74655 -6.45 2.84217e-14 0 -1.84885 0.760059 -1.39509 -6.45 2.84217e-14 -1.13687e-13 -106.013 -48.0517 -29.0893 0 -32.4 -2 -22.6824 -50.6042 -31.8905 -1.13687e-13 -25.65 2 15.0255 -6.01405 2.80434 0.5 -1.5 2.65 109.752 16.3192 176.095 1.13687e-13 -3.8 3.7 0.106809 12.3381 0.0112715 0 -3 2.7 0.0136724 44.3009 -0.000191082 0 -1.9 1.6 3.18055e-15 3.18055e-15 -1.59028e-15 -5.68434e-14 -8.3 1.9 0.549483 -6.29697 0.000828619 0 -4.5 0 -2.14098e-09 -0.000294176 -0.00041699 0 -3.4 0 -2.00102e-09 -0.00028945 -0.000396096 0.25 -2.2 0.4 3.18055e-15 3.18055e-15 -1.59028e-15 0 -8.3 1 0.909237 -0.901038 -0.0779482 5.68434e-14 -4.65 0 2.61558 -0.0388326 -0.00416011 0 -3.3 0 2.46852 -0.0360791 -0.00144828 0.5 -2.15 -0.8 3.18055e-15 3.18055e-15 -1.59028e-15 0 -7.75 -0.2 1.48227 7.06347 -0.287576 -5.68434e-14 -3.8 -5.68434e-14 -0.000446161 0.000966415 -0.00429724 0 -3.4 0 -0.000444098 0.00121331 -0.00610334 0.75 -1.75 -1.85 3.18055e-15 3.18055e-15 -1.59028e-15 0 -7.15 -1 1.48592 10.4195 -0.357603 0 -3 -5.68434e-14 -2.89164e-08 -0.00020037 -0.00826864 0 -2.35 0 2.35634e-09 -0.000187104 0.000721569 8 0 1.13687e-13 0.788434 -7.68989 -11.9957 0 -45 -1 -0.156547 13.3651 2.28346 2.84217e-14 -41 -2 -1.35203 -5.70806 -2.47973 0 -7.5 12.5 -3.03321e-20 7.27971e-20 3.18055e-15 0 -4.33681e-19 4 -1.15382 -0.867473 35.7948 -8 1.42109e-14 0 -1.27959 -0.369241 7.94534 5.68434e-14 -45 -1 -0.00025571 4.72578 -0.173804 5.68434e-14 -41 -2 2.45158 -4.66535 19.2811 1.13687e-13 -7.5 12.5 6.81747e-19 -0.00679633 6.36111e-15 0 0 4 -0.861205 2.07654 8.45121 
-266.279 92.9664 870.918 1.10727 -0.047744 176.746 -2.84217e-14 8 0 0.57925 -2.22354 -3.80201 0 8 1.13687e-13 0.104658 1.02933 1.84546 2.84217e-14 8 1.13687e-13 0.0564876 0.513612 0.923007 5.68434e-14 8 0 0.0564787 0.513524 0.922847 0 17 -1.13687e-13 -3.8502 -9.48607 4.05166 0 10.8 -1.13687e-13 -1.20202 -15.8167 9.75631 5 17 0 -12.4861 -8.50567 1.62602 6.45 0 0 -1.61197 -0.422988 0.0914054 6.45 0 1.13687e-13 40.696 -12.7642 18.8669 0 -32.4 -2 -44.6416 -41.1331 -42.5361 -2.84217e-14 -25.65 2 -24.579 -33.8789 -3.41627 -0.5 -1.5 2.65 18.7402 10.4339 -12.6951 0 -3.8 3.7 -0.17763 25.4406 0.0191327 2.84217e-14 -3 2.7 -0.0214317 24.2891 0.0184174 5.68434e-14 -1.9 1.6 -1.27222e-14 0 -0 2.84217e-14 -8.3 1.9 -6.6961 20.5531 1.45562 -1.13687e-13 -4.5 3.55271e-15 -1.23738e-07 -0.00967613 -0.000732696 0 -3.4 7.10543e-15 6.09556e-08 -0.00398689 0.000875996 -0.25 -2.2 0.4 -1.27222e-14 0 -0 -8.52651e-14 -8.3 1 -5.33618 8.30585 0.694329 1.13687e-13 -4.65 0 -6.06178e-08 0.000293654 0.0118273 0 -3.3 0 -1.54571e-08 0.00028583 0.00309845 -0.5 -2.15 -0.8 -1.27222e-14 0 -0 -2.84217e-14 -7.75 -0.2 -4.70189 -8.04756 0.196252 0 -3.8 -5.68434e-14 -2.69915e-07 0.00475157 0.00325472 1.13687e-13 -3.4 0 -9.5847e-08 0.00170526 0.0032204 -0.75 -1.75 -1.85 -1.27222e-14 0 -0 5.68434e-14 -7.15 -1 -3.87279 -15.6666 0.0568237 0 -3 5.68434e-14 3.85612e-05 0.00371204 0.00163393 0 -2.35 0 3.84149e-05 0.0045962 0.00343031 -5 17 0 -8.2581 -3.3957 1.60579 -6.45 0 1.13687e-13 -1.84871 0.761972 -1.3845 -6.45 -5.68434e-14 0 -106.96 -48.2095 -29.5552 0 -32.4 -2 -22.318 -50.1525 -31.4373 0 -25.65 2 15.5154 -6.33932 2.83915 0.5 -1.5 2.65 108.899 15.7834 176.009 0 -3.8 3.7 0.106757 12.7248 0.0112478 0 -3 2.7 0.013676 44.3009 -0.00019995 0 -1.9 1.6 -3.18055e-15 -3.18055e-15 -0 5.68434e-14 -8.3 1.9 0.540239 -6.24266 0.000940727 5.68434e-14 -4.5 0 -2.08845e-09 -0.000290545 -0.000411844 0 -3.4 0 -1.95193e-09 -0.000285878 -0.000391207 0.25 -2.2 0.4 -3.18055e-15 -3.18055e-15 -0 0 -8.3 1 0.90984 -0.835487 -0.0785314 5.68434e-14 -4.65 0 1.89079 -0.0318202 -0.00421897 0 -3.3 -1.13687e-13 1.79716 -0.029916 -0.00162462 0.5 -2.15 -0.8 -3.18055e-15 -3.18055e-15 -0 0 -7.75 -0.2 1.49183 7.11939 -0.287913 0 -3.8 0 -0.000465233 0.00106644 -0.00416188 0 -3.4 0 -0.000463077 0.00133752 -0.00606032 0.75 -1.75 -1.85 -3.18055e-15 -3.18055e-15 -0 -5.68434e-14 -7.15 -1 1.49869 10.4703 -0.358361 0 -3 0 -3.15098e-08 -0.00022019 -0.0081992 0 -2.35 0 2.68906e-09 -0.000204987 0.000751619 8 1.42109e-14 1.13687e-13 0.749324 -7.66693 -12.0278 -8.52651e-14 -45 -1 -0.157154 13.3599 2.29299 0 -41 -2 -1.32541 -5.72102 -2.33115 2.84217e-14 -7.5 12.5 1.21329e-20 -2.42657e-20 -6.36111e-15 0 0 4 -1.15992 -0.848954 35.7949 -8 0 -1.13687e-13 -1.32232 -0.39323 7.93327 0 -45 -1 -2.62006e-10 4.75003 -0.190905 5.68434e-14 -41 -2 2.48728 -4.66834 19.4022 1.13687e-13 -7.5 12.5 4.14268e-19 -0.00680709 3.18055e-15 0 0 4 -0.861941 2.07828 8.44845 
